# xmcd
#
# Track frame offsets:
#	150
#	13958
#	36258
#	54403
#	69113
#	83562
#	101655
#	122241
#	144131
#	162181
#	178920
#
# Disc length: 2606 seconds
#
# Revision: 2
# Processed by: cddbd v1.4PL0 Copyright (c) Steve Scherf et al.
# Submitted via: Gronk 1.4
#
DISCID=8b0a2c0b
DTITLE=Davin James - Magnolia
DYEAR=2001
DGENRE=country
TTITLE0=Thought She'd Think
TTITLE1=Magnolia
TTITLE2=Heaven On Earth
TTITLE3=Ten Foot Pole
TTITLE4=The One That Got Away
TTITLE5=N'awlins Night
TTITLE6=Mardi Gras Mamma
TTITLE7=Real Good Night
TTITLE8=Washing In The Blood
TTITLE9=Dream Girl
TTITLE10=Rolling Dice
EXTD=
EXTT0=
EXTT1=
EXTT2=
EXTT3=
EXTT4=
EXTT5=
EXTT6=
EXTT7=
EXTT8=
EXTT9=
EXTT10=
PLAYORDER=
